<?xml version="1.0" encoding="UTF-8"?>
<svg id="Ebene_2" data-name="Ebene 2" xmlns="http://www.w3.org/2000/svg" viewBox="0 0 659.3 867">
  <defs>
    <style>
      <!--Eye Colour-->
      .cls-1 {
        fill: #211c18;
      }

      .cls-1, .cls-2, .cls-3, .cls-4, .cls-5, .cls-6, .cls-7, .cls-8 {
        stroke-width: 0px;
      }

      <!--Hair Colour-->
      .cls-2 {
        fill: #a56e41;
      }
      <!--Augenbraun Colour-->
      .cls-3 {
        fill: #66401d;
      }

      .cls-4 {
        fill: #dbaf83;
      }

      .cls-9 {
        fill: #000;
        stroke: #c1272d;
        stroke-miterlimit: 10;
        stroke-width: 4px;
      }
      <!--Tongue Colour-->
      .cls-5 {
        fill: #c65868;
      }
      <!--Skin Colour-->
      .cls-6 {
        fill: #f7cca6;
      }
      <!--Face Colour-->
      .cls-7 {
        fill: #8e36b2;
      }

      .cls-8 {
        fill: #fff;
      }
    </style>
  </defs>
  <g id="Ebene_2-2" data-name="Ebene 2">
    <rect class="cls-2" x="26.37" width="606.25" height="590" rx="72.09" ry="72.09"/>
    <rect class="cls-4" x="192.5" y="528.5" width="274" height="131"/>
    <path class="cls-6" d="M138.65,131h381.69c14.43,0,26.15,11.72,26.15,26.15v204.35c0,119.77-97.23,217-217,217h0c-119.77,0-217-97.23-217-217v-204.35c0-14.43,11.72-26.15,26.15-26.15Z"/>
    <g id="Expression">
      <circle class="cls-1" cx="255.3" cy="289.5" r="31.5"/>
      <path class="cls-1" d="M437.3,289.5c0,17.4-14.1,31.5-31.5,31.5-17.4,0-31.5-14.1-31.5-31.5s14.1-31.5,31.5-31.5c17.4,0,31.5,14.1,31.5,31.5Z"/>
    </g>
    <rect class="cls-3" x="179.3" y="235.93" width="125.33" height="15.32" rx="7.66" ry="7.66"/>
    <path class="cls-9" d="M238.07,418h182.87c3.62,0,6.57,2.94,6.57,6.57v29.78c0,41.2-33.45,74.66-74.66,74.66h-46.97c-41.05,0-74.37-33.32-74.37-74.37v-30.06c0-3.62,2.94-6.57,6.57-6.57Z"/>
    <path class="cls-8" d="M238.06,420h182.88c2.52,0,4.56,2.04,4.56,4.56v12.44h-192v-12.44c0-2.52,2.04-4.56,4.56-4.56Z"/>
    <path class="cls-5" d="M338.07,472h-17c-26.74,0-49.01,19.08-53.96,44.37,11.2,6.75,24.31,10.63,38.33,10.63h46.97c14.5,0,28.03-4.15,39.49-11.31-5.21-24.95-27.33-43.69-53.83-43.69Z"/>
    <rect class="cls-3" x="363.3" y="234.44" width="125.33" height="15.32" rx="7.66" ry="7.66"/>
    <path class="cls-7" d="M659,739v-37.23c0-33.29-26.98-60.27-60.27-60.27H60.27c-33.29,0-60.27,26.98-60.27,60.27v74.46c0,2.03.1,4.04.3,6.02v84.75h659v-128h-.3Z"/>
  </g>
</svg>