<?xml version="1.0" encoding="UTF-8"?>
<svg id="Ebene_2" data-name="Ebene 2" xmlns="http://www.w3.org/2000/svg" viewBox="0 0 659.3 976">
  <defs>
    <style>
      <!--Eye Colour-->
      .cls-1 {
        fill: #211c18;
      }

      .cls-1, .cls-2, .cls-3, .cls-4, .cls-5, .cls-6, .cls-7, .cls-8 {
        stroke-width: 0px;
      }
      <!--Hair Colour-->
      .cls-2 {
        fill: #66401d;
      }
      <!--Augenbraun Colour-->
      .cls-3 {
        fill: #dbaf83;
      }

      .cls-9 {
        fill: #000;
        stroke: #c1272d;
        stroke-miterlimit: 10;
        stroke-width: 4px;
      }

      .cls-4 {
        fill: #c65868;
      }
      <!--Tongue Colour-->
      .cls-5 {
        fill: #f7cca6;
      }
      <!--Skin Colour-->
      .cls-6 {
        fill: #351f06;
      }
      <!--Face Colour-->
      .cls-7 {
        fill: #fff;
      }

      .cls-8 {
        fill: #8e8885;
      }
    </style>
  </defs>
  <g id="Ebene_2-2" data-name="Ebene 2">
    <rect class="cls-3" x="187.85" y="632.5" width="274" height="258.5"/>
    <path class="cls-6" d="M659,848v-37.23c0-33.29-26.98-60.27-60.27-60.27H60.27c-33.29,0-60.27,26.98-60.27,60.27v74.46c0,2.03.1,4.04.3,6.02v84.75h659v-128h-.3Z"/>
    <rect class="cls-3" x="237.79" y="656.93" width="184.15" height="184.15" transform="translate(33.48 1511.87) rotate(-135)"/>
    <path class="cls-5" d="M134,235h381.69c14.43,0,26.15,11.72,26.15,26.15v204.35c0,119.77-97.23,217-217,217h0c-119.77,0-217-97.23-217-217v-204.35c0-14.43,11.72-26.15,26.15-26.15Z"/>
    <g id="Expression">
      <circle class="cls-1" cx="250.65" cy="393.5" r="31.5"/>
      <path class="cls-1" d="M432.65,393.5c0,17.4-14.1,31.5-31.5,31.5-17.4,0-31.5-14.1-31.5-31.5s14.1-31.5,31.5-31.5c17.4,0,31.5,14.1,31.5,31.5Z"/>
    </g>
    <rect class="cls-8" x="26.23" width="606.25" height="275" rx="72.09" ry="72.09"/>
    <rect class="cls-2" x="212.56" y="334.45" width="101.38" height="15.32" rx="7.66" ry="7.66" transform="translate(227.31 -88.06) rotate(32.8)"/>
    <path class="cls-9" d="M233.42,522h182.87c3.62,0,6.57,2.94,6.57,6.57v29.78c0,41.2-33.45,74.66-74.66,74.66h-46.97c-41.05,0-74.37-33.32-74.37-74.37v-30.06c0-3.62,2.94-6.57,6.57-6.57Z"/>
    <path class="cls-7" d="M233.41,524h182.88c2.52,0,4.56,2.04,4.56,4.56v12.44h-192v-12.44c0-2.52,2.04-4.56,4.56-4.56Z"/>
    <path class="cls-4" d="M333.42,576h-17c-26.74,0-49.01,19.08-53.96,44.37,11.2,6.75,24.31,10.63,38.33,10.63h46.97c14.5,0,28.03-4.15,39.49-11.31-5.21-24.95-27.33-43.69-53.83-43.69Z"/>
    <rect class="cls-2" x="338.61" y="334.46" width="101.38" height="15.32" rx="7.66" ry="7.66" transform="translate(901.87 418.79) rotate(147.2)"/>
    <rect class="cls-2" x="243.65" y="750" width="10" height="142" transform="translate(-507.71 416.29) rotate(-45)"/>
    <rect class="cls-2" x="403.61" y="749.73" width="10" height="142" transform="translate(117.19 1690.01) rotate(-135)"/>
  </g>
</svg>